<svg width="22" height="19" viewBox="0 0 22 19" fill="none" xmlns="http://www.w3.org/2000/svg">
<circle opacity="0.1" cx="10.9847" cy="12.0353" r="6.56471" fill="#FE8C00"/>
<circle cx="3.67885" cy="7.05883" r="0.423529" fill="#B468FF"/>
<circle cx="11.673" cy="2.45294" r="0.9" fill="#B468FF"/>
<circle cx="19.773" cy="10.8706" r="0.847059" fill="#FE8C00"/>
<path d="M16.0671 1.34118L16.2875 1.96782L16.9141 2.18823L16.2875 2.40865L16.0671 3.03529L15.8467 2.40865L15.22 2.18823L15.8467 1.96782L16.0671 1.34118Z" fill="#FB46FF"/>
<path d="M3.00687 9.12677C3.00687 9.12677 2.83254 9.8305 2.00691 9.8608C1.45649 9.881 1.32701 9.31058 0.684026 9.69671C0.397678 9.86867 0.184738 10.3911 0.184738 10.3911" stroke="#FB46FF" stroke-width="0.317647" stroke-linecap="round"/>
<path d="M3.30827 13.2L3.61407 14.006L4.42003 14.3118L3.61407 14.6176L3.30827 15.4235L3.00246 14.6176L2.1965 14.3118L3.00246 14.006L3.30827 13.2Z" fill="#FE8C00"/>
<circle cx="10.6671" cy="1.12941" r="0.211765" fill="#FB46FF"/>
<path d="M4.03084 1.21012C4.13493 2.11499 6.2377 3.01688 6.28455 2.27657C6.35879 1.10343 3.52289 2.01812 7.39187 3.55541" stroke="#FE8C00" stroke-width="0.317647" stroke-linecap="round"/>
<path d="M19.5612 14.9799C20.0868 14.9053 21.2329 15.031 21.6121 16.1304" stroke="#B468FF" stroke-width="0.317647" stroke-linecap="round"/>
<path d="M19.0402 4.7683C19.0402 4.7683 19.8087 5.1593 20.1308 4.80888C20.4246 4.48923 20.0849 3.99035 20.4404 3.74107C20.7296 3.53823 21.3424 3.67184 21.3424 3.67184" stroke="#FE8C00" stroke-width="0.317647" stroke-linecap="round"/>
<rect x="18.7141" y="8.64706" width="0.741176" height="0.741176" rx="0.211765" fill="#FE8C00"/>
<path d="M10.174 7.53512C10.6281 7.34705 11.1315 7.32374 11.5978 7.46481L11.7951 7.53512L13.5939 8.28024C14.0479 8.46833 14.4197 8.80784 14.6496 9.23727L14.7394 9.42672L15.4846 11.2246C15.6726 11.6787 15.696 12.1821 15.5549 12.6484L15.4846 12.8457L14.7394 14.6445C14.5514 15.0984 14.2127 15.4712 13.7834 15.7011L13.5939 15.79L11.7951 16.5351C11.3409 16.7232 10.8377 16.7466 10.3713 16.6054L10.174 16.5351L8.37617 15.79C7.92224 15.602 7.54953 15.2633 7.31953 14.834L7.22968 14.6445L6.48457 12.8457C6.29648 12.3915 6.27308 11.8882 6.41425 11.4218L6.48457 11.2246L7.22968 9.42672C7.41778 8.97263 7.75716 8.60006 8.18671 8.37008L8.37617 8.28024L10.174 7.53512Z" fill="#F5F5FF" stroke="#FE8C00" stroke-width="0.847059"/>
<path fill-rule="evenodd" clip-rule="evenodd" d="M12.2426 10.752C12.3019 10.6932 12.3819 10.6602 12.4654 10.6599C12.5488 10.6597 12.629 10.6923 12.6886 10.7508C12.7482 10.8092 12.7824 10.8887 12.7839 10.9722C12.7853 11.0556 12.7538 11.1363 12.6962 11.1967L11.0055 13.3101C10.9764 13.3414 10.9414 13.3665 10.9024 13.384C10.8634 13.4014 10.8213 13.4108 10.7786 13.4116C10.7359 13.4124 10.6935 13.4045 10.6539 13.3886C10.6143 13.3726 10.5783 13.3488 10.5481 13.3186L9.42786 12.1979C9.39665 12.1688 9.37162 12.1338 9.35426 12.0948C9.3369 12.0559 9.32756 12.0138 9.32681 11.9711C9.32606 11.9285 9.3339 11.8861 9.34988 11.8466C9.36585 11.807 9.38963 11.7711 9.4198 11.7409C9.44996 11.7108 9.48589 11.687 9.52544 11.671C9.56499 11.655 9.60736 11.6472 9.65001 11.6479C9.69266 11.6487 9.73472 11.658 9.77369 11.6754C9.81265 11.6927 9.84772 11.7178 9.8768 11.749L10.7637 12.6354L12.2346 10.7613C12.2372 10.758 12.24 10.7549 12.2431 10.752H12.2426Z" fill="#FE8C00"/>
</svg>
